# AST/ASF file generated using VICON BodyLanguage
# -----------------------------------------------
:version 1.10
:name VICON
:units
  mass 1.0
  length 0.45
  angle deg
:documentation
   .ast/.asf automatically generated from VICON data using
   VICON BodyBuilder and BodyLanguage model FoxedUp or BRILLIANT.MOD
:root
   order TX TY TZ RX RY RZ
   axis XYZ
   position 0 0 0  
   orientation 0 0 0 
:bonedata
  begin
     id 1 
     name lhipjoint
     direction 0.528046 -0.759594 0.379717 
     length 2.39752 
     axis 0 0 0  XYZ
  end
  begin
     id 2 
     name lfemur
     direction 0.34202 -0.939693 0  
     length 7.31175  
     axis 0 0 20  XYZ
    dof rx ry rz
    limits (-160.0 20.0)
           (-70.0 70.0)
           (-60.0 70.0)
  end
  begin
     id 3 
     name ltibia
     direction 0.34202 -0.939693 0   
     length 7.52482   
     axis 0 0 20   XYZ
    dof rx
    limits (-10.0 170.0)
  end
  begin
     id 4 
     name lfoot
     direction 0.0675379 -0.185559 0.980309   
     length 2.00961   
     axis -90 7.62852e-016 20   XYZ
    dof rx rz
    limits (-45.0 90.0)
           (-70.0 20.0)
  end
  begin
     id 5 
     name ltoes
     direction 1.5352e-011 -4.22286e-011 1   
     length 1.01383   
     axis -90 7.62852e-016 20   XYZ
    dof rx
    limits (-90.0 20.0)
  end
  begin
     id 6 
     name rhipjoint
     direction -0.510274 -0.769251 0.384544   
     length 2.36742  
     axis 0 0 0  XYZ 
  end
  begin
     id 7 
     name rfemur
     direction -0.34202 -0.939693 0   
     length 7.45325   
     axis 0 0 -20   XYZ
    dof rx ry rz
    limits (-160.0 20.0)
           (-70.0 70.0)
           (-70.0 60.0)
  end
  begin
     id 8 
     name rtibia
     direction -0.34202 -0.939693 0   
     length 7.49587   
     axis 0 0 -20   XYZ
    dof rx
    limits (-10.0 170.0)
 end
 begin
     id 9 
     name rfoot
     direction -0.106475 -0.292536 0.950308   
     length 2.20898  
     axis -90 -7.62852e-016 -20   XYZ
    dof rx rz
    limits (-45.0 90.0)
           (-20.0 70.0)
  end
  begin
     id 10 
     name rtoes
     direction -1.53597e-011 -4.22023e-011 1   
     length 1.10065   
     axis -90 -7.62852e-016 -20   XYZ
    dof rx
    limits (-90.0 20.0)
  end
  begin
     id 11 
     name lowerback
     direction 0.0260024 0.998026 -0.0571652   
     length 2.11214   
     axis 0 0 0   XYZ
    dof rx ry rz
    limits (-20.0 45.0)
           (-30.0 30.0)
           (-30.0 30.0)
  end
  begin
     id 12 
     name upperback
     direction 0.0216202 0.999542 -0.0211766   
     length 2.11689   
     axis 0 0 0   XYZ
    dof rx ry rz
    limits (-20.0 45.0)
           (-30.0 30.0)
           (-30.0 30.0)
  end
  begin
     id 13 
     name thorax
     direction 0.00883312 0.999944 0.00589057   
     length 2.11821   
     axis 0 0 0   XYZ
    dof rx ry rz
    limits (-20.0 45.0)
           (-30.0 30.0)
           (-30.0 30.0)
  end
  begin
     id 14 
     name lowerneck
     direction -0.059386 0.994433 0.0870401   
     length 1.81176   
     axis 0 0 0   XYZ
    dof rx ry rz
    limits (-20.0 45.0)
           (-30.0 30.0)
           (-30.0 30.0)
  end
  begin
     id 15 
     name upperneck
     direction 0.0506457 0.97328 -0.223967   
     length 1.82382   
     axis 0 0 0   XYZ
    dof rx ry rz
    limits (-20.0 45.0)
           (-30.0 30.0)
           (-30.0 30.0)
  end
  begin
     id 16
     name head
     direction 0.0205902 0.996147 -0.0852487  
     length 1.84805  
     axis 0 0 0   XYZ
    dof rx ry rz
    limits (-20.0 45.0)
           (-30.0 30.0)
           (-30.0 30.0)
  end
  begin
     id 17 
     name lclavicle
     direction 0.949493 0.303881 -0.0782325  
     length 3.60584  
     axis 0 0 0   XYZ
    dof ry rz
    limits (-20.0 10.0)
           (0.0 20.0)
  end
  begin
     id 18 
     name lhumerus
     direction 1 -4.48965e-011 1.48782e-027   
     length 4.95681   
     axis 180 -30 -90   XYZ
    dof rx ry rz
    limits (-60.0 90.0)
           (-90.0 90.0)
           (-90.0 90.0)
  end
  begin
     id 19
     name lradius
     direction 1 -4.48952e-011 2.06528e-027   
     length 3.40915   
     axis 180 -30 -90   XYZ
    dof rx
    limits (-10.0 170.0)
  end
  begin
     id 20
     name lwrist
     direction 1 -4.48964e-011 1.28021e-027   
     length 1.70457   
     axis -1.61767e-015 90 90   XYZ
    dof ry
    limits (-180.0 0.0)
 end
  begin
     id 21 
     name lhand
     direction 1 -4.49094e-011 2.54887e-027   
     length 0.616403   
     axis -1.63363e-015 90 90   XYZ
    dof rx rz
    limits (-90.0 90.0)
           (-45.0 45.0)
  end
  begin
     id 22 
     name lfingers
     direction 1 -4.49002e-011 5.11407e-027   
     length 0.49696   
     axis -3.26723e-015 90 90   XYZ
    dof rx
    limits (0.0 90.0)
  end
  begin
     id 23
     name lthumb
     direction 0.707107 -6.34998e-011 0.707107   
     length 0.713539   
     axis -90 45 -2.25915e-014   XYZ
    dof rx rz
    limits (-45.0 45.0)
           (-45.0 45.0)
  end
  begin
     id 24 
     name rclavicle
     direction -0.937751 0.334612 -0.0930482   
     length 3.46287  
     axis 0 0 0   XYZ 
    dof ry rz
    limits (-10.0 20.0)
           (-20.0 0.0)
  end
  begin
     id 25 
     name rhumerus
     direction -1 -4.48962e-011 3.59972e-027  
     length 5.352   
     axis 180 30 90   XYZ
    dof rx ry rz
    limits (-90.0 60.0)
           (-90.0 90.0)
           (-90.0 90.0)
  end
  begin
     id 26 
     name rradius
     direction -1 -4.48987e-011 -3.76925e-027   
     length 3.43721   
     axis 180 30 90   XYZ
    dof rx
    limits (-10.0 170.0)
  end
  begin
     id 27 
     name rwrist
     direction -1 -4.48943e-011 1.28112e-027   
     length 1.7186   
     axis -1.61767e-015 -90 -90   XYZ
    dof ry
    limits (-180.0 0.0)
  end
  begin
     id 28
     name rhand
     direction -1 -4.49027e-011 2.55483e-027   
     length 0.72009   
     axis -1.63363e-015 -90 -90   XYZ
    dof rx rz
    limits (-90.0 90.0)
           (-45.0 45.0)
  end
  begin
     id 29
     name rfingers
     direction -1 -4.48827e-011 5.14506e-027   
     length 0.580555   
     axis -3.26723e-015 -90 -90   XYZ
    dof rx
    limits (0.0 90.0)
  end
  begin
     id 30
     name rthumb
     direction -0.707107 -6.34936e-011 0.707107   
     length 0.833564   
     axis -90 -45 2.25915e-014   XYZ
    dof rx rz
    limits (-45.0 45.0)
           (-45.0 45.0)
  end
:hierarchy
  begin
    root lhipjoint rhipjoint lowerback
    lhipjoint lfemur
    lfemur ltibia
    ltibia lfoot
    lfoot ltoes
    rhipjoint rfemur
    rfemur rtibia
    rtibia rfoot
    rfoot rtoes
    lowerback upperback
    upperback thorax
    thorax lowerneck lclavicle rclavicle
    lowerneck upperneck
    upperneck head
    lclavicle lhumerus
    lhumerus lradius
    lradius lwrist
    lwrist lhand lthumb
    lhand lfingers
    rclavicle rhumerus
    rhumerus rradius
    rradius rwrist
    rwrist rhand rthumb
    rhand rfingers
  end

#!OML:ASF H:\Terrain\Patient Classification 1\Terrain2\Thursday\justin.ASF
:FULLY-SPECIFIED
:DEGREES
602
root 30.558 17.6622 -20.7549 363.359 -5.86436 356.388
lowerback 3.7791 -0.625623 -0.0418377
upperback 0.647074 -0.782036 3.63772
thorax -1.40297 -0.386849 3.80853
lowerneck -12.9424 -4.45661 -12.144
upperneck 27.4768 -5.7957 8.32484
head 11.7187 -2.90733 4.36992
rclavicle 1.23246e-014 -3.61788e-014
rhumerus -27.7575 -6.7856 -81.6449
rradius 31.1166
rwrist -13.0551
rhand -19.8692 14.0977
rfingers 7.12502
rthumb 6.46609 -15.7836
lclavicle 1.23246e-014 -3.61788e-014
lhumerus -34.4889 3.51454 89.3586
lradius 31.6349
lwrist 2.35295
lhand -17.0187 23.027
lfingers 7.12502
lthumb 9.21727 52.8056
rfemur -16.3972 7.1096 20.2926
rtibia 31.1353
rfoot -20.4815 7.6782
rtoes 9.38671
lfemur -12.7916 2.46588 -18.1947
ltibia 27.3679
lfoot -13.7141 -5.95564
ltoes 7.13801
603
root 30.5824 17.671 -20.7786 363.545 -6.75718 356.44
lowerback 3.83472 -0.530977 0.0167186
upperback 0.704816 -0.656451 3.487
thorax -1.38554 -0.325141 3.61293
lowerneck -13.2516 -4.68659 -11.8544
upperneck 27.6539 -6.13964 8.18332
head 11.8793 -3.04531 4.21553
rclavicle -4.96962e-015 -3.10104e-014
rhumerus -27.4494 -6.91692 -81.9111
rradius 31.4539
rwrist -13.2441
rhand -20.0215 14.1382
rfingers 7.12502
rthumb 6.31902 -15.7476
lclavicle -4.96962e-015 -3.10104e-014
lhumerus -34.4137 2.67243 89.6336
lradius 31.3883
lwrist 3.29464
lhand -12.9022 29.5627
lfingers 7.12502
lthumb 13.1875 59.1256
rfemur -16.6981 5.934 20.4098
rtibia 31.5297
rfoot -21.2269 5.07924
rtoes 5.89302
lfemur -12.9871 2.56115 -18.3937
ltibia 27.4358
lfoot -13.7912 -5.33335
ltoes 7.07643
604
root 30.6027 17.6738 -20.8046 363.636 -7.5669 356.562
lowerback 3.98241 -0.475676 -0.0350241
upperback 0.768644 -0.586538 3.31426
thorax -1.40829 -0.290506 3.46084
lowerneck -13.3245 -4.83591 -11.6916
upperneck 27.7717 -6.41992 8.23885
head 11.9706 -3.14899 4.1685
rclavicle 1.27719e-014 9.54166e-015
rhumerus -27.2569 -6.81227 -82.2698
rradius 31.8743
rwrist -13.5203
rhand -20.4439 14.3737
rfingers 7.12502
rthumb 5.91127 -15.5238
lclavicle 1.27719e-014 9.54166e-015
lhumerus -34.3061 2.24318 89.7053
lradius 30.9911
lwrist 3.359
lhand -12.0364 29.5559
lfingers 7.12502
lthumb 14.0219 59.0629
rfemur -16.9162 4.92309 20.4567
rtibia 32.0255
rfoot -21.5184 2.63271
rtoes 6.56201
lfemur -13.0932 2.93705 -18.6374
ltibia 27.4422
lfoot -13.8394 -5.07191
ltoes 6.35231
605
root 30.6214 17.6727 -20.8349 363.749 -8.2717 356.327
lowerback 4.20689 -0.444637 0.191726
upperback 0.835182 -0.533357 3.30911
thorax -1.47092 -0.265055 3.32691
lowerneck -13.4141 -4.97098 -11.6412
upperneck 27.8285 -6.65836 8.34126
head 12.0427 -3.23846 4.16302
rclavicle -8.10048e-015 9.93923e-015
rhumerus -27.0363 -6.80956 -82.5063
rradius 32.3914
rwrist -13.693
rhand -20.4846 14.4154
rfingers 7.12502
rthumb 5.87193 -15.4833
lclavicle -8.10048e-015 9.93923e-015
lhumerus -34.2988 1.86462 89.7369
lradius 30.7342
lwrist 2.67963
lhand -14.2861 25.3752
lfingers 7.12502
lthumb 11.8532 55.0197
rfemur -17.1815 3.9356 20.9379
rtibia 32.6692
rfoot -21.8459 0.15577
rtoes 8.26008
lfemur -13.1752 3.46962 -18.44
ltibia 27.3343
lfoot -13.6969 -4.70083
ltoes 5.6576
606
root 30.6468 17.6727 -20.8584 363.882 -9.13507 356.158
lowerback 4.29002 -0.35685 0.342944
upperback 0.95673 -0.411494 3.34546
thorax -1.40019 -0.206275 3.27263
lowerneck -13.4916 -5.11655 -11.5982
upperneck 27.7213 -6.86311 8.32378
head 12.0399 -3.32575 4.11254
rclavicle 2.31087e-014 -6.75868e-015
rhumerus -26.7118 -6.81098 -82.6297
rradius 32.9702
rwrist -13.9211
rhand -20.4119 14.2538
rfingers 7.12502
rthumb 5.9422 -15.6429
lclavicle 2.31087e-014 -6.75868e-015
lhumerus -34.2626 1.00495 90.1191
lradius 30.5837
lwrist 3.12691
lhand -16.0814 23.9778
lfingers 7.12502
lthumb 10.1217 53.7144
rfemur -17.4576 2.56468 21.3843
rtibia 33.348
rfoot -22.121 -2.31323
rtoes 5.7212
lfemur -13.2431 3.84072 -18.3571
ltibia 27.2553
lfoot -13.5966 -4.08988
ltoes 5.7277
607
root 30.6723 17.6791 -20.8768 363.965 -10.2887 356.308
lowerback 4.16182 -0.22717 0.266961
upperback 1.26684 -0.256429 3.22536
thorax -1.01851 -0.133426 3.1799
lowerneck -13.9476 -5.31336 -11.5658
upperneck 27.7242 -7.10958 8.33089
head 12.1655 -3.42131 4.06413
rclavicle -5.61567e-015 2.38542e-014
rhumerus -26.0491 -6.66839 -82.955
rradius 33.4955
rwrist -14.3425
rhand -20.5944 13.7557
rfingers 7.12502
rthumb 5.76599 -16.1458
lclavicle -5.61567e-015 2.38542e-014
lhumerus -33.9295 0.162605 90.4817
lradius 30.5031
lwrist 4.26935
lhand -14.6278 26.6677
lfingers 7.12502
lthumb 11.5237 56.3309
rfemur -17.6705 1.15221 21.4958
rtibia 34.0159
rfoot -22.052 -4.63469
rtoes 2.51081
lfemur -13.2677 4.11782 -18.6393
ltibia 27.2516
lfoot -13.5322 -3.599
ltoes 7.05005
608
root 30.6965 17.6816 -20.897 363.985 -11.4839 356.279
lowerback 4.25667 -0.149463 0.445886
upperback 1.49362 -0.152514 3.08795
thorax -0.845111 -0.0839447 2.93126
lowerneck -14.3146 -5.45937 -11.5791
upperneck 27.9021 -7.31145 8.38964
head 12.3412 -3.49978 4.05593
rclavicle 3.72224e-014 -2.38542e-015
rhumerus -25.5579 -6.4908 -83.3809
rradius 34.0007
rwrist -14.5739
rhand -20.5658 13.2621
rfingers 7.12502
rthumb 5.79356 -16.6387
lclavicle 3.72224e-014 -2.38542e-015
lhumerus -33.7647 -0.142142 90.4754
lradius 30.4363
lwrist 4.46508
lhand -13.4581 27.883
lfingers 7.12502
lthumb 12.6516 57.4799
rfemur -17.7294 -0.0227973 21.7939
rtibia 34.7035
rfoot -22.0383 -6.73705
rtoes 2.43609
lfemur -13.1458 4.11292 -18.6976
ltibia 27.1772
lfoot -13.4854 -2.76585
ltoes 8.4931
609
root 30.7244 17.6812 -20.9184 364.117 -12.5698 356.133
lowerback 4.47027 -0.174977 0.575031
upperback 1.40365 -0.173402 3.13783
thorax -1.05609 -0.0931643 2.91278
lowerneck -13.9792 -5.39001 -11.6908
upperneck 27.8995 -7.21352 8.34396
head 12.2615 -3.4848 4.07743
rclavicle 1.56543e-014 -4.05521e-014
rhumerus -25.6151 -5.91954 -83.6119
rradius 34.5509
rwrist -14.7171
rhand -20.6203 13.2311
rfingers 7.12502
rthumb 5.74091 -16.6711
lclavicle 1.56543e-014 -4.05521e-014
lhumerus -34.032 -0.0202069 90.5003
lradius 30.172
lwrist 4.23189
lhand -14.0116 27.0264
lfingers 7.12502
lthumb 12.1179 56.6555
rfemur -17.8731 -1.21978 22.1774
rtibia 35.4243
rfoot -22.0816 -8.30415
rtoes 4.05237
lfemur -13.1431 4.19543 -18.6583
ltibia 27.058
lfoot -13.4947 -1.72414
ltoes 8.51875
610
root 30.7495 17.6901 -20.9359 364.319 -13.6024 356.313
lowerback 4.40916 -0.543041 0.0563512
upperback 1.38391 -0.684411 3.52817
thorax -1.00702 -0.350467 3.63656
lowerneck -14.082 -5.04877 -12.5559
upperneck 27.9185 -6.43941 8.22001
head 12.2269 -3.24661 4.2992
rclavicle -2.28602e-014 -2.42517e-014
rhumerus -25.306 -3.82603 -83.7149
rradius 35.0124
rwrist -15.1371
rhand -20.655 13.422
rfingers 7.12502
rthumb 5.7074 -16.4811
lclavicle -2.28602e-014 -2.42517e-014
lhumerus -34.1645 1.53036 90.6941
lradius 29.9946
lwrist 4.32454
lhand -14.6904 26.6157
lfingers 7.12502
lthumb 11.4634 56.2823
rfemur -18.1587 -2.40014 22.1958
rtibia 36.1098
rfoot -22.0853 -9.45798
rtoes 5.91676
lfemur -13.3273 4.5701 -18.9876
ltibia 27.0081
lfoot -13.5336 -1.22212
ltoes 8.51821
611
root 30.7715 17.6907 -20.9484 364.372 -14.7109 356.513
lowerback 4.29383 -0.0152487 0.37635
upperback 1.57154 0.0182194 2.83735
thorax -0.794119 0.000650925 2.70301
lowerneck -14.2671 -5.51176 -11.4543
upperneck 27.8938 -7.41719 8.29943
head 12.3312 -3.55175 3.98131
rclavicle 8.39865e-015 2.82274e-014
rhumerus -25.2167 -5.52957 -84.207
rradius 35.6173
rwrist -14.9957
rhand -20.3128 13.6158
rfingers 7.12502
rthumb 6.03787 -16.2782
lclavicle 8.39865e-015 2.82274e-014
lhumerus -33.8092 -0.596607 90.5477
lradius 29.7972
lwrist 4.8643
lhand -15.3793 26.8638
lfingers 7.12502
lthumb 10.7989 56.5662
rfemur -18.26 -3.64301 22.2001
rtibia 36.7917
rfoot -22.2852 -10.5714
rtoes 7.44645
lfemur -13.3741 4.95835 -19.3285
ltibia 27.0373
lfoot -13.6343 -0.637677
ltoes 8.01446
612
root 30.7946 17.6845 -20.9636 364.462 -15.9126 356.376
lowerback 4.18952 0.36091 0.775236
upperback 1.58739 0.529187 2.45881
thorax -0.735298 0.257719 2.06343
lowerneck -13.7826 -5.74356 -10.7042
upperneck 27.8783 -8.01218 8.2789
head 12.258 -3.75485 3.7564
rclavicle 1.31695e-014 -9.14409e-015
rhumerus -25.4059 -6.43682 -84.5908
rradius 36.1632
rwrist -14.8503
rhand -20.0388 13.5759
rfingers 7.12502
rthumb 6.30233 -16.3104
lclavicle 1.31695e-014 -9.14409e-015
lhumerus -33.8471 -1.91417 90.4092
lradius 29.3618
lwrist 4.75311
lhand -15.8472 26.8476
lfingers 7.12502
lthumb 10.3475 56.573
rfemur -18.3105 -5.0869 22.559
rtibia 37.5161
rfoot -22.5266 -11.4261
rtoes 9.01789
lfemur -13.3593 5.34928 -19.3051
ltibia 27.058
lfoot -13.711 0.260343
ltoes 6.90498
